<?xml version="1.0" encoding="utf-8"?>
<!-- Generator: Adobe Illustrator 16.0.0, SVG Export Plug-In . SVG Version: 6.00 Build 0)  -->
<!DOCTYPE svg PUBLIC "-//W3C//DTD SVG 1.1//EN" "http://www.w3.org/Graphics/SVG/1.1/DTD/svg11.dtd">
<svg version="1.1" id="Layer_1" xmlns="http://www.w3.org/2000/svg" xmlns:xlink="http://www.w3.org/1999/xlink" x="0px" y="0px"
	 width="136px" height="136px" viewBox="0 0 136 136" enable-background="new 0 0 136 136" xml:space="preserve">
<g>
	<circle fill="#E57373" cx="68" cy="68" r="67.584"/>
	<g>
		<g opacity="0.2">
			<path d="M102.391,58.687c-1.107-9.038-8.905-15.942-18.203-15.748c-7.455,0.158-13.753,4.833-16.334,11.352
				c-2.855-6.405-9.341-10.812-16.794-10.654c-9.301,0.196-16.8,7.424-17.529,16.5c-0.048,0.604-0.065,1.219-0.055,1.839
				c0.46,21.824,27.459,31.56,35.507,45.953l0,0c7.437-14.717,33.998-25.581,33.539-47.407
				C102.51,59.901,102.467,59.29,102.391,58.687z"/>
		</g>
		<g>
			<path fill="#FFFFFF" d="M102.391,55.715c-1.107-9.039-8.907-15.944-18.203-15.748c-7.457,0.157-13.753,4.832-16.334,11.352
				c-2.856-6.405-9.341-10.812-16.795-10.654c-9.3,0.196-16.8,7.425-17.529,16.5c-0.048,0.605-0.066,1.219-0.055,1.839
				c0.46,21.825,27.458,31.559,35.506,45.952l0,0c7.438-14.714,34-25.578,33.538-47.405C102.51,56.93,102.467,56.316,102.391,55.715
				z"/>
		</g>
	</g>
</g>
</svg>
