<?xml version="1.0" encoding="utf-8"?>
<!-- Generator: Adobe Illustrator 16.0.0, SVG Export Plug-In . SVG Version: 6.00 Build 0)  -->
<!DOCTYPE svg PUBLIC "-//W3C//DTD SVG 1.1//EN" "http://www.w3.org/Graphics/SVG/1.1/DTD/svg11.dtd">
<svg version="1.1" id="Layer_1" xmlns="http://www.w3.org/2000/svg" xmlns:xlink="http://www.w3.org/1999/xlink" x="0px" y="0px"
	 width="136px" height="136px" viewBox="0 0 136 136" enable-background="new 0 0 136 136" xml:space="preserve">
<g>
	<circle fill="#FCA44B" cx="68" cy="68" r="67.913"/>
	<path opacity="0.1" d="M103,111.262c0,1.863-0.52,2.738-2.385,2.738h-61.23C37.52,114,35,113.125,35,111.262V39.236
		C35,37.372,37.52,35,39.385,35h61.23c1.865,0,2.385,2.372,2.385,4.236V111.262z"/>
	<path fill="#FFFFFF" d="M101,109.262c0,1.863-0.52,2.738-2.385,2.738h-61.23C35.52,112,33,111.125,33,109.262V37.236
		C33,35.372,35.52,33,37.385,33h61.23c1.865,0,2.385,2.372,2.385,4.236V109.262z"/>
	<path fill="#CBCFD1" d="M95,36.625C95,38.489,93.488,40,91.623,40H44.377C42.512,40,41,38.489,41,36.625v-5.249
		C41,29.511,42.512,28,44.377,28h47.246C93.488,28,95,29.511,95,31.375V36.625z"/>
	<circle fill="#CBCFD1" cx="68.505" cy="28.096" r="7.969"/>
	<circle fill="#FFFFFF" cx="68.505" cy="27.864" r="4.151"/>
	<g>
		<path fill="#EDEDED" d="M85,48.406C85,49.287,84.286,50,83.406,50H42.594C41.713,50,41,49.287,41,48.406v-1.812
			C41,45.713,41.713,45,42.594,45h40.812C84.286,45,85,45.713,85,46.594V48.406z"/>
		<polygon fill="#FE5A27" points="91.502,49.867 89.482,47.848 90.444,46.885 91.502,47.94 93.931,45.511 94.894,46.475 		"/>
	</g>
	<g>
		<path fill="#EDEDED" d="M85,58.406C85,59.287,84.286,60,83.406,60H42.594C41.713,60,41,59.287,41,58.406v-1.812
			C41,55.713,41.713,55,42.594,55h40.812C84.286,55,85,55.713,85,56.594V58.406z"/>
		<polygon fill="#FE5A27" points="91.502,59.867 89.482,57.848 90.444,56.885 91.502,57.94 93.931,55.511 94.894,56.475 		"/>
	</g>
	<g>
		<path fill="#EDEDED" d="M85,68.406C85,69.287,84.286,70,83.406,70H42.594C41.713,70,41,69.287,41,68.406v-1.812
			C41,65.713,41.713,65,42.594,65h40.812C84.286,65,85,65.713,85,66.594V68.406z"/>
		<polygon fill="#FE5A27" points="91.502,69.867 89.482,67.848 90.444,66.885 91.502,67.94 93.931,65.512 94.894,66.475 		"/>
	</g>
	<g>
		<path fill="#EDEDED" d="M85,78.406C85,79.287,84.286,80,83.406,80H42.594C41.713,80,41,79.287,41,78.406v-1.812
			C41,75.713,41.713,75,42.594,75h40.812C84.286,75,85,75.713,85,76.594V78.406z"/>
		<polygon fill="#FE5A27" points="91.502,79.867 89.482,77.848 90.444,76.885 91.502,77.94 93.931,75.512 94.894,76.475 		"/>
	</g>
	<g>
		<path fill="#EDEDED" d="M85,88.406C85,89.287,84.286,90,83.406,90H42.594C41.713,90,41,89.287,41,88.406v-1.812
			C41,85.713,41.713,85,42.594,85h40.812C84.286,85,85,85.713,85,86.594V88.406z"/>
		<polygon fill="#FE5A27" points="91.502,89.867 89.482,87.848 90.444,86.885 91.502,87.94 93.931,85.512 94.894,86.475 		"/>
	</g>
	<g>
		<path fill="#EDEDED" d="M85,98.406c0,0.881-0.714,1.594-1.594,1.594H42.594C41.713,100,41,99.287,41,98.406v-1.812
			C41,95.713,41.713,95,42.594,95h40.812C84.286,95,85,95.713,85,96.594V98.406z"/>
		<polygon fill="#FE5A27" points="91.502,99.867 89.482,97.848 90.444,96.885 91.502,97.94 93.931,95.512 94.894,96.475 		"/>
	</g>
</g>
</svg>
