<?xml version="1.0" encoding="utf-8"?>
<!-- Generator: Adobe Illustrator 16.0.0, SVG Export Plug-In . SVG Version: 6.00 Build 0)  -->
<!DOCTYPE svg PUBLIC "-//W3C//DTD SVG 1.1//EN" "http://www.w3.org/Graphics/SVG/1.1/DTD/svg11.dtd">
<svg version="1.1" id="Layer_1" xmlns="http://www.w3.org/2000/svg" xmlns:xlink="http://www.w3.org/1999/xlink" x="0px" y="0px"
	 width="800px" height="436px" viewBox="0 0 800 436" enable-background="new 0 0 800 436" xml:space="preserve">
<g>
	<path fill="#3F3F3F" d="M724,417.923c0,6.118-4.959,11.077-11.077,11.077H87.077C80.959,429,76,424.041,76,417.923V11.077
		C76,4.959,80.959,0,87.077,0h625.846C719.041,0,724,4.959,724,11.077V417.923z"/>
	<rect x="100" y="23" fill="#FFFFFF" width="599" height="412"/>
	<rect x="85" y="378" fill="#3F3F3F" width="621" height="27"/>
	<g>
		<path fill="#A5A5A5" d="M763,422h-7H44h-5H0v4.271l11.88,6.049c0,0,3.83,2.021,5.213,2.233l2.761,0.852L44,436l0,0h712l0,0
			l24.146-0.595l2.761-0.745c1.383-0.213,5.213-2.287,5.213-2.287l11.88-6.102V422H763z"/>
		<rect y="402" fill="#E2E2E2" width="800" height="20"/>
	</g>
	<polygon fill="#C4C4C4" points="294,192.271 294,192.271 294,192.271 294,192.271 294,192.271 294,192.271 294,192.271 	"/>
	<path fill="#B7B7B7" d="M770,413.018c0,0.543-0.44,0.982-0.983,0.982h-17.032c-0.543,0-0.983-0.439-0.983-0.982v-0.034
		c0-0.543,0.44-0.982,0.983-0.982h17.032c0.544,0,0.983,0.439,0.983,0.982V413.018z"/>
</g>
<rect x="99" y="23" fill="#FBA34A" width="117" height="355"/>
<circle fill="#E59248" cx="154.001" cy="69.999" r="31.667"/>
<path fill="#E59248" d="M199,128c0,2.209-1.791,4-4,4h-78c-2.209,0-4-1.791-4-4v-5c0-2.209,1.791-4,4-4h78c2.209,0,4,1.791,4,4V128z
	"/>
<path fill="#E59248" d="M192,168c0,2.209-1.791,4-4,4h-71c-2.209,0-4-1.791-4-4v-4c0-2.209,1.791-4,4-4h71c2.209,0,4,1.791,4,4V168z
	"/>
<g>
	<path fill="#E59248" d="M135,367c0,2.209-1.791,4-4,4h-17c-2.209,0-4-1.791-4-4v-17c0-2.209,1.791-4,4-4h17c2.209,0,4,1.791,4,4
		V367z"/>
	<path fill="#E59248" d="M167,367c0,2.209-1.791,4-4,4h-17c-2.209,0-4-1.791-4-4v-17c0-2.209,1.791-4,4-4h17c2.209,0,4,1.791,4,4
		V367z"/>
	<path fill="#E59248" d="M198,367c0,2.209-1.791,4-4,4h-17c-2.209,0-4-1.791-4-4v-17c0-2.209,1.791-4,4-4h17c2.209,0,4,1.791,4,4
		V367z"/>
</g>
<path fill="#E59248" d="M162,148c0,2.209-1.791,4-4,4h-41c-2.209,0-4-1.791-4-4v-4c0-2.209,1.791-4,4-4h41c2.209,0,4,1.791,4,4V148z
	"/>
<g>
	<path fill="#F7EBE2" d="M506,252.5c0,2.209-1.791,4-4,4H237c-2.209,0-4-1.791-4-4v-171c0-2.209,1.791-4,4-4h265
		c2.209,0,4,1.791,4,4V252.5z"/>
	<path fill="#EAEAEA" d="M665,287.5c0,2.209-1.791,4-4,4H235c-2.209,0-4-1.791-4-4v-12c0-2.209,1.791-4,4-4h426c2.209,0,4,1.791,4,4
		V287.5z"/>
	<path fill="#EAEAEA" d="M646,321.5c0,2.209-1.791,4-4,4H235c-2.209,0-4-1.791-4-4v-11c0-2.209,1.791-4,4-4h407c2.209,0,4,1.791,4,4
		V321.5z"/>
	<path fill="#EAEAEA" d="M662,358.5c0,2.209-1.791,4-4,4H235c-2.209,0-4-1.791-4-4v-11c0-2.209,1.791-4,4-4h423c2.209,0,4,1.791,4,4
		V358.5z"/>
	<path fill="#EAEAEA" d="M673,246.5c0,2.209-1.791,4-4,4H521c-2.209,0-4-1.791-4-4v-11c0-2.209,1.791-4,4-4h148c2.209,0,4,1.791,4,4
		V246.5z"/>
	<path fill="#EAEAEA" d="M673,206.5c0,2.209-1.791,4-4,4H521c-2.209,0-4-1.791-4-4v-11c0-2.209,1.791-4,4-4h148c2.209,0,4,1.791,4,4
		V206.5z"/>
	<path fill="#EAEAEA" d="M673,166.5c0,2.209-1.791,4-4,4H521c-2.209,0-4-1.791-4-4v-11c0-2.209,1.791-4,4-4h148c2.209,0,4,1.791,4,4
		V166.5z"/>
	<path fill="#EAEAEA" d="M673,132.5c0,2.209-1.791,4-4,4H521c-2.209,0-4-1.791-4-4v-11c0-2.209,1.791-4,4-4h148c2.209,0,4,1.791,4,4
		V132.5z"/>
	<path fill="#EAEAEA" d="M673,92.5c0,2.209-1.791,4-4,4H521c-2.209,0-4-1.791-4-4v-11c0-2.209,1.791-4,4-4h148c2.209,0,4,1.791,4,4
		V92.5z"/>
	<g id="Livello_46_1_">
		<path fill="#FFFFFF" d="M320.077,134.73c0-7.497-6.052-13.581-13.512-13.581c-7.453,0-13.492,6.076-13.492,13.581
			s6.048,13.561,13.492,13.561C314.025,148.291,320.077,142.235,320.077,134.73 M289.154,219.383c0,0-0.126,0.172-0.317,0.506
			h161.334c-0.033-0.05-0.033-0.05-0.041-0.065l-55.069-74.967c0,0-6.52-8.889-13.044,0l-34.072,46.38l-12.539-17.061
			c0,0-6.517-8.889-13.052,0L289.154,219.383z M455.641,224.723H283.379V109.306H455.64L455.641,224.723L455.641,224.723z
			 M462.808,228.337V105.696c0-1.982-1.6-3.614-3.603-3.614H279.786c-1.974,0-3.594,1.624-3.594,3.614v122.642
			c0,1.971,1.612,3.581,3.594,3.581h179.419C461.208,231.918,462.808,230.307,462.808,228.337"/>
	</g>
</g>
<rect x="216" y="23" fill="#FFDEC2" width="483" height="37.5"/>
</svg>
