<?xml version="1.0" encoding="utf-8"?>
<!-- Generator: Adobe Illustrator 16.0.0, SVG Export Plug-In . SVG Version: 6.00 Build 0)  -->
<!DOCTYPE svg PUBLIC "-//W3C//DTD SVG 1.1//EN" "http://www.w3.org/Graphics/SVG/1.1/DTD/svg11.dtd">
<svg version="1.1" id="Layer_1" xmlns="http://www.w3.org/2000/svg" xmlns:xlink="http://www.w3.org/1999/xlink" x="0px" y="0px"
	 width="136px" height="136px" viewBox="0 0 136 136" enable-background="new 0 0 136 136" xml:space="preserve">
<g>
	<circle fill="#67CFE8" cx="68" cy="68" r="66.982"/>
	<rect x="38" y="29" opacity="0.1" width="64" height="81"/>
	<rect x="36" y="27" fill="#FFFFFF" width="64" height="81"/>
	<g>
		<g>
			<path fill="#EDEDED" d="M63,41.072C63,42.137,62.137,43,61.072,43H40.928C39.863,43,39,42.137,39,41.072v-0.144
				C39,39.863,39.863,39,40.928,39h20.145C62.137,39,63,39.863,63,40.928V41.072z"/>
			<path fill="#EDEDED" d="M63,48.072C63,49.137,62.137,50,61.071,50H40.929C39.863,50,39,49.137,39,48.072v-0.144
				C39,46.863,39.863,46,40.929,46h20.143C62.137,46,63,46.863,63,47.928V48.072z"/>
			<path fill="#EDEDED" d="M63,55.072C63,56.137,62.137,57,61.071,57H40.929C39.863,57,39,56.137,39,55.072v-0.145
				C39,53.863,39.863,53,40.929,53h20.143C62.137,53,63,53.863,63,54.928V55.072z"/>
			<path fill="#EDEDED" d="M63,63.071C63,64.137,62.137,65,61.071,65H40.929C39.863,65,39,64.137,39,63.071v-0.143
				C39,61.863,39.863,61,40.929,61h20.143C62.137,61,63,61.863,63,62.929V63.071z"/>
			<path fill="#EDEDED" d="M97,70.043C97,71.124,96.124,72,95.043,72H40.957C39.876,72,39,71.124,39,70.043v-0.086
				C39,68.876,39.876,68,40.957,68h54.086C96.124,68,97,68.876,97,69.957V70.043z"/>
			<path fill="#EDEDED" d="M97,76.959C97,78.041,96.124,79,95.043,79H40.957C39.876,79,39,78.041,39,76.959v-0.086
				C39,75.793,39.876,75,40.957,75h54.086C96.124,75,97,75.793,97,76.873V76.959z"/>
			<path fill="#EDEDED" d="M97,83.959C97,85.041,96.124,86,95.043,86H40.957C39.876,86,39,85.041,39,83.959v-0.086
				C39,82.793,39.876,82,40.957,82h54.086C96.124,82,97,82.793,97,83.873V83.959z"/>
			<path fill="#EDEDED" d="M97,91.959C97,93.041,96.124,94,95.043,94H40.957C39.876,94,39,93.041,39,91.959v-0.086
				C39,90.793,39.876,90,40.957,90h54.086C96.124,90,97,90.793,97,91.873V91.959z"/>
			<path fill="#EDEDED" d="M97,99.043c0,1.081-0.876,1.957-1.957,1.957H40.957C39.876,101,39,100.124,39,99.043v-0.086
				C39,97.876,39.876,97,40.957,97h54.086C96.124,97,97,97.876,97,98.957V99.043z"/>
		</g>
		<path opacity="0.7" fill="#69CEF7" d="M97,63.043C97,64.124,96.124,65,95.043,65H67.957C66.876,65,66,64.124,66,63.043V40.957
			C66,39.876,66.876,39,67.957,39h27.086C96.124,39,97,39.876,97,40.957V63.043z"/>
	</g>
	<path fill="#EDEDED" d="M97,34.043C97,35.124,96.124,36,95.043,36H40.957C39.876,36,39,35.124,39,34.043v-0.086
		C39,32.876,39.876,32,40.957,32h54.086C96.124,32,97,32.876,97,33.957V34.043z"/>
</g>
</svg>
